<?xml version="1.0" encoding="utf-8"?>
<!-- Generator: Adobe Illustrator 16.0.0, SVG Export Plug-In . SVG Version: 6.00 Build 0)  -->
<!DOCTYPE svg PUBLIC "-//W3C//DTD SVG 1.1//EN" "http://www.w3.org/Graphics/SVG/1.1/DTD/svg11.dtd">
<svg version="1.1" id="Layer_1" xmlns="http://www.w3.org/2000/svg" xmlns:xlink="http://www.w3.org/1999/xlink" x="0px" y="0px"
	 width="16px" height="16px" viewBox="0 0 16 16" enable-background="new 0 0 16 16" xml:space="preserve">
<title>Slice 1</title>
<description>Created with Sketch (http://www.bohemiancoding.com/sketch)</description>
<g id="Page_1">
	<g id="Layer_1_1_">
		<path id="Shape" fill="#ABABAB" d="M8,0C3.582,0,0,3.582,0,8c0,4.419,3.582,8,8,8c4.418,0,8-3.581,8-8C16,3.582,12.418,0,8,0L8,0z
			"/>
	</g>
</g>
<path fill="#FFFFFF" d="M7.961,11.856l4.514-4.305c0.186-0.176,0.278-0.414,0.278-0.652c0-0.221-0.082-0.447-0.249-0.619
	c-0.343-0.361-0.913-0.373-1.272-0.031L7.939,9.392l-3.43-3.153C4.144,5.901,3.573,5.924,3.237,6.29
	C2.901,6.659,2.925,7.227,3.29,7.563L7.961,11.856z"/>
</svg>
