<?xml version="1.0" encoding="utf-8"?>
<!-- Generator: Adobe Illustrator 16.0.0, SVG Export Plug-In . SVG Version: 6.00 Build 0)  -->
<!DOCTYPE svg PUBLIC "-//W3C//DTD SVG 1.1//EN" "http://www.w3.org/Graphics/SVG/1.1/DTD/svg11.dtd">
<svg version="1.1" id="Layer_1" xmlns="http://www.w3.org/2000/svg" xmlns:xlink="http://www.w3.org/1999/xlink" x="0px" y="0px"
	 width="16px" height="16px" viewBox="0 0 16 16" enable-background="new 0 0 16 16" xml:space="preserve">
<title>Slice 1</title>
<description>Created with Sketch (http://www.bohemiancoding.com/sketch)</description>
<g id="Page_1">
	<g id="Layer_1_1_">
		<path id="Shape" fill="#ABABAB" d="M8,0C3.582,0,0,3.582,0,8c0,4.419,3.582,8,8,8c4.418,0,8-3.581,8-8C16,3.582,12.418,0,8,0L8,0z
			"/>
	</g>
</g>
<path fill="#FFFFFF" d="M7.764,5.186L3.278,9.354c-0.185,0.17-0.276,0.401-0.276,0.632c0,0.214,0.081,0.433,0.247,0.6
	c0.341,0.35,0.908,0.36,1.265,0.03l3.273-3.043l3.409,3.052c0.362,0.327,0.93,0.305,1.264-0.049
	c0.334-0.357,0.311-0.907-0.053-1.232L7.764,5.186z"/>
</svg>
